<svg width="157" height="157" viewBox="0 0 157 157" fill="none" xmlns="http://www.w3.org/2000/svg">
<rect width="156.824" height="156.824" rx="78.4121" fill="#E9ECE0"/>
<path d="M39.5936 84V72.608H38.7296L34.8576 81.392L30.8896 72.608H30.0256V84H30.8896V74.608L34.4096 82.4H35.2736L38.7296 74.608V84H39.5936ZM48.6714 80.144C48.6714 79.5893 48.6127 79.0347 48.4954 78.48C48.378 77.9253 48.1167 77.4453 47.7114 77.04C47.434 76.7627 47.114 76.5547 46.7514 76.416C46.3994 76.2667 46.0047 76.192 45.5674 76.192C44.7034 76.192 43.9887 76.4747 43.4234 77.04C43.018 77.4453 42.7567 77.9253 42.6394 78.48C42.522 79.0347 42.4634 79.5893 42.4634 80.144C42.4634 80.6987 42.522 81.2533 42.6394 81.808C42.7567 82.3627 43.018 82.8427 43.4234 83.248C43.9887 83.8133 44.7034 84.096 45.5674 84.096C46.0047 84.096 46.3994 84.0267 46.7514 83.888C47.114 83.7387 47.434 83.5253 47.7114 83.248C48.1167 82.8427 48.378 82.3627 48.4954 81.808C48.6127 81.2533 48.6714 80.6987 48.6714 80.144ZM47.8554 80.144C47.8554 80.368 47.85 80.5973 47.8394 80.832C47.8287 81.0667 47.7967 81.3013 47.7434 81.536C47.7007 81.76 47.6314 81.9733 47.5354 82.176C47.45 82.3787 47.3274 82.56 47.1674 82.72C46.954 82.9333 46.7087 83.0987 46.4314 83.216C46.1647 83.3227 45.8767 83.376 45.5674 83.376C44.938 83.376 44.4047 83.1573 43.9674 82.72C43.8074 82.56 43.6794 82.3787 43.5834 82.176C43.498 81.9733 43.4287 81.76 43.3754 81.536C43.3327 81.3013 43.306 81.0667 43.2954 80.832C43.2847 80.5973 43.2794 80.368 43.2794 80.144C43.2794 79.92 43.2847 79.6907 43.2954 79.456C43.306 79.2213 43.3327 78.992 43.3754 78.768C43.4287 78.5333 43.498 78.3147 43.5834 78.112C43.6794 77.9093 43.8074 77.728 43.9674 77.568C44.4047 77.1307 44.938 76.912 45.5674 76.912C45.8767 76.912 46.1647 76.9707 46.4314 77.088C46.7087 77.1947 46.954 77.3547 47.1674 77.568C47.3274 77.728 47.45 77.9093 47.5354 78.112C47.6314 78.3147 47.7007 78.5333 47.7434 78.768C47.7967 78.992 47.8287 79.2213 47.8394 79.456C47.85 79.6907 47.8554 79.92 47.8554 80.144ZM56.2613 76.928C55.9839 76.6507 55.6959 76.4587 55.3973 76.352C55.1093 76.2453 54.7786 76.192 54.4053 76.192C53.9466 76.192 53.5093 76.288 53.0933 76.48C52.6879 76.672 52.3733 76.9493 52.1493 77.312V76.288H51.3333V84H52.1493V79.248C52.1493 78.9387 52.1919 78.6453 52.2773 78.368C52.3733 78.08 52.5066 77.8293 52.6773 77.616C52.8586 77.4027 53.0773 77.232 53.3333 77.104C53.5893 76.976 53.8826 76.912 54.2133 76.912C54.5333 76.912 54.7946 76.9547 54.9973 77.04C55.2106 77.1253 55.4346 77.2853 55.6693 77.52L56.2613 76.928ZM63.0456 80.32V79.952C63.0456 78.768 62.7736 77.8453 62.2296 77.184C61.6856 76.5227 60.9283 76.192 59.9576 76.192C58.987 76.192 58.2296 76.5387 57.6856 77.232C57.1416 77.9253 56.8696 78.896 56.8696 80.144C56.8696 81.4347 57.147 82.416 57.7016 83.088C58.267 83.76 59.083 84.096 60.1496 84.096C60.4696 84.096 60.7576 84.0693 61.0136 84.016C61.2696 83.9733 61.5043 83.904 61.7176 83.808C61.9416 83.7013 62.1496 83.5733 62.3416 83.424C62.5443 83.2747 62.7416 83.104 62.9336 82.912L62.3256 82.432C61.995 82.7627 61.6696 83.0027 61.3496 83.152C61.0403 83.2907 60.6563 83.36 60.1976 83.36C59.3763 83.36 58.7523 83.0987 58.3256 82.576C57.899 82.0533 57.6856 81.3013 57.6856 80.32H63.0456ZM62.2296 79.664H57.6856C57.6963 79.4827 57.707 79.328 57.7176 79.2C57.7283 79.0613 57.7443 78.944 57.7656 78.848C57.787 78.7413 57.8083 78.64 57.8296 78.544C57.8616 78.4373 57.9043 78.3253 57.9576 78.208C58.1283 77.8027 58.3896 77.488 58.7416 77.264C59.1043 77.0293 59.5096 76.912 59.9576 76.912C60.4056 76.912 60.8056 77.0293 61.1576 77.264C61.5203 77.488 61.787 77.8027 61.9576 78.208C62.0003 78.3253 62.0376 78.4373 62.0696 78.544C62.1016 78.64 62.1283 78.7413 62.1496 78.848C62.171 78.944 62.187 79.0613 62.1976 79.2C62.2083 79.328 62.219 79.4827 62.2296 79.664ZM75.1148 84V78.72C75.1148 77.9093 74.8694 77.2853 74.3788 76.848C73.8988 76.4107 73.1468 76.192 72.1228 76.192C71.4934 76.192 70.9654 76.2773 70.5388 76.448C70.1121 76.608 69.7334 76.9173 69.4028 77.376L69.9948 77.888C70.2401 77.536 70.5174 77.2853 70.8268 77.136C71.1468 76.9867 71.5788 76.912 72.1228 76.912C72.9121 76.912 73.4721 77.072 73.8028 77.392C74.1334 77.712 74.2988 78.1813 74.2988 78.8V79.664H71.8028C70.9601 79.664 70.2988 79.8613 69.8188 80.256C69.3494 80.64 69.1148 81.184 69.1148 81.888C69.1148 82.176 69.1628 82.4533 69.2588 82.72C69.3548 82.9867 69.4934 83.2107 69.6748 83.392C69.9201 83.648 70.2134 83.8293 70.5548 83.936C70.9068 84.0427 71.3708 84.096 71.9468 84.096C72.4908 84.096 72.9334 84.0373 73.2748 83.92C73.6268 83.792 73.9681 83.5627 74.2988 83.232V84H75.1148ZM74.2988 81.312C74.2988 82.0267 74.1548 82.5173 73.8668 82.784C73.5894 83.0507 73.2854 83.216 72.9548 83.28C72.6348 83.344 72.2988 83.376 71.9468 83.376C71.2428 83.376 70.7308 83.2533 70.4108 83.008C70.0908 82.7627 69.9308 82.384 69.9308 81.872C69.9308 80.8373 70.5868 80.32 71.8988 80.32H74.2988V81.312ZM84.1454 80.144C84.1454 79.536 84.076 78.9387 83.9374 78.352C83.8094 77.7547 83.548 77.2587 83.1534 76.864C82.9507 76.6613 82.684 76.5013 82.3534 76.384C82.0334 76.256 81.6707 76.192 81.2654 76.192C80.828 76.192 80.4227 76.2613 80.0494 76.4C79.676 76.5387 79.3187 76.832 78.9774 77.28V72.608H78.1614V84H78.9774V83.008C79.3187 83.456 79.676 83.7493 80.0494 83.888C80.4227 84.0267 80.828 84.096 81.2654 84.096C81.6707 84.096 82.0334 84.0373 82.3534 83.92C82.684 83.792 82.9507 83.6267 83.1534 83.424C83.548 83.0293 83.8094 82.5387 83.9374 81.952C84.076 81.3547 84.1454 80.752 84.1454 80.144ZM83.3294 80.144C83.3294 80.5493 83.3027 80.944 83.2494 81.328C83.2067 81.712 83.1054 82.0587 82.9454 82.368C82.796 82.6667 82.5774 82.912 82.2894 83.104C82.0014 83.2853 81.6227 83.376 81.1534 83.376C80.684 83.376 80.3054 83.2853 80.0174 83.104C79.7294 82.912 79.5054 82.6667 79.3454 82.368C79.196 82.0587 79.0947 81.712 79.0414 81.328C78.9987 80.944 78.9774 80.5493 78.9774 80.144C78.9774 79.7493 78.9987 79.36 79.0414 78.976C79.0947 78.5813 79.196 78.2347 79.3454 77.936C79.5054 77.6267 79.7294 77.3813 80.0174 77.2C80.3054 77.008 80.684 76.912 81.1534 76.912C81.6227 76.912 82.0014 77.008 82.2894 77.2C82.5774 77.3813 82.796 77.6267 82.9454 77.936C83.1054 78.2347 83.2067 78.5813 83.2494 78.976C83.3027 79.36 83.3294 79.7493 83.3294 80.144ZM92.562 80.144C92.562 79.5893 92.5033 79.0347 92.386 78.48C92.2687 77.9253 92.0073 77.4453 91.602 77.04C91.3247 76.7627 91.0047 76.5547 90.642 76.416C90.29 76.2667 89.8953 76.192 89.458 76.192C88.594 76.192 87.8793 76.4747 87.314 77.04C86.9087 77.4453 86.6473 77.9253 86.53 78.48C86.4127 79.0347 86.354 79.5893 86.354 80.144C86.354 80.6987 86.4127 81.2533 86.53 81.808C86.6473 82.3627 86.9087 82.8427 87.314 83.248C87.8793 83.8133 88.594 84.096 89.458 84.096C89.8953 84.096 90.29 84.0267 90.642 83.888C91.0047 83.7387 91.3247 83.5253 91.602 83.248C92.0073 82.8427 92.2687 82.3627 92.386 81.808C92.5033 81.2533 92.562 80.6987 92.562 80.144ZM91.746 80.144C91.746 80.368 91.7407 80.5973 91.73 80.832C91.7193 81.0667 91.6873 81.3013 91.634 81.536C91.5913 81.76 91.522 81.9733 91.426 82.176C91.3407 82.3787 91.218 82.56 91.058 82.72C90.8447 82.9333 90.5993 83.0987 90.322 83.216C90.0553 83.3227 89.7673 83.376 89.458 83.376C88.8287 83.376 88.2953 83.1573 87.858 82.72C87.698 82.56 87.57 82.3787 87.474 82.176C87.3887 81.9733 87.3193 81.76 87.266 81.536C87.2233 81.3013 87.1967 81.0667 87.186 80.832C87.1753 80.5973 87.17 80.368 87.17 80.144C87.17 79.92 87.1753 79.6907 87.186 79.456C87.1967 79.2213 87.2233 78.992 87.266 78.768C87.3193 78.5333 87.3887 78.3147 87.474 78.112C87.57 77.9093 87.698 77.728 87.858 77.568C88.2953 77.1307 88.8287 76.912 89.458 76.912C89.7673 76.912 90.0553 76.9707 90.322 77.088C90.5993 77.1947 90.8447 77.3547 91.058 77.568C91.218 77.728 91.3407 77.9093 91.426 78.112C91.522 78.3147 91.5913 78.5333 91.634 78.768C91.6873 78.992 91.7193 79.2213 91.73 79.456C91.7407 79.6907 91.746 79.92 91.746 80.144ZM101.064 84V76.288H100.248V81.072C100.248 81.808 100.056 82.3787 99.6719 82.784C99.2985 83.1787 98.7652 83.376 98.0719 83.376C97.3785 83.376 96.8505 83.1787 96.4879 82.784C96.1252 82.3893 95.9439 81.8187 95.9439 81.072V76.288H95.1279V81.216C95.1279 82.1333 95.3945 82.848 95.9279 83.36C96.4399 83.8507 97.1225 84.096 97.9759 84.096C98.9145 84.096 99.6719 83.76 100.248 83.088V84H101.064ZM106.913 84V83.28H106.353C105.948 83.28 105.649 83.168 105.457 82.944C105.265 82.72 105.169 82.4053 105.169 82V76.896H106.913V76.288H105.169V73.824H104.353V76.288H103.297V76.896H104.353V81.984C104.353 82.5707 104.508 83.056 104.817 83.44C105.137 83.8133 105.601 84 106.209 84H106.913ZM119.283 84V76.288H118.467V81.072C118.467 81.808 118.275 82.3787 117.891 82.784C117.517 83.1787 116.984 83.376 116.291 83.376C115.597 83.376 115.069 83.1787 114.707 82.784C114.344 82.3893 114.163 81.8187 114.163 81.072V76.288H113.347V81.216C113.347 82.1333 113.613 82.848 114.147 83.36C114.659 83.8507 115.341 84.096 116.195 84.096C117.133 84.096 117.891 83.76 118.467 83.088V84H119.283ZM127.836 81.808C127.836 81.4347 127.777 81.1253 127.66 80.88C127.543 80.6347 127.383 80.4373 127.18 80.288C126.988 80.128 126.753 80.016 126.476 79.952C126.199 79.8773 125.9 79.824 125.58 79.792L124.332 79.68C123.788 79.6267 123.388 79.4987 123.132 79.296C122.887 79.0933 122.764 78.7893 122.764 78.384C122.764 77.904 122.929 77.536 123.26 77.28C123.601 77.024 124.092 76.896 124.732 76.896C125.575 76.896 126.295 77.1147 126.892 77.552L127.436 77.008C127.095 76.752 126.689 76.5547 126.22 76.416C125.761 76.2667 125.265 76.192 124.732 76.192C123.889 76.192 123.217 76.3893 122.716 76.784C122.215 77.1787 121.964 77.712 121.964 78.384C121.964 79.6 122.737 80.272 124.284 80.4L125.564 80.512C126.076 80.5653 126.449 80.6933 126.684 80.896C126.919 81.0987 127.036 81.4027 127.036 81.808C127.036 82.3307 126.839 82.7253 126.444 82.992C126.049 83.248 125.473 83.376 124.716 83.376C123.628 83.376 122.785 83.0613 122.188 82.432L121.628 82.992C122.023 83.3653 122.471 83.6427 122.972 83.824C123.484 84.0053 124.076 84.096 124.748 84.096C125.697 84.096 126.449 83.8933 127.004 83.488C127.559 83.072 127.836 82.512 127.836 81.808Z" fill="#333333"/>
</svg>
